<?xml version="1.0" encoding="UTF-8"?>
<svg id="_图层_2" data-name="图层 2" xmlns="http://www.w3.org/2000/svg" viewBox="0 0 303.62 36.82">
  <defs>
    <style>
      .cls-1 {
        fill: #325b49;
      }
    </style>
  </defs>
  <g id="_1" data-name="1">
    <g>
      <g>
        <path class="cls-1" d="M241.78,1.26c1,1.37.7,3.3-.67,4.3-1.37,1.01-3.3.71-4.3-.66-1-1.37-.7-3.3.67-4.3,1.37-1.01,3.3-.71,4.3.66Z"/>
        <path class="cls-1" d="M226.79,10.6s3.75-2.73,8.56-2.4c4.28.29,8.78-1.71,12.33-4.18-3.65,3.16-9.62,7.34-10.01,10.2-2.05-3.35-7.21-5.11-10.88-3.62Z"/>
        <path class="cls-1" d="M239.48,36.34s-4.5-12.64-1.37-19.78c3.13-7.13,9.81-9.65,17.49-7.15-5.29.9-9.95,3.62-13.21,7.98-3.26,4.36-3.77,13.15-2.9,18.95Z"/>
      </g>
      <g>
        <path class="cls-1" d="M23.2,36.34h-5.8v-11.23H5.8v11.23H0V9.12h5.8v10.99h11.6v-10.99h5.8v27.23Z"/>
        <path class="cls-1" d="M47.35,28.22h-12.8c.2,3.01,2.02,4.52,5.45,4.52,2.14,0,4.04-.53,5.68-1.58v4.17c-1.77,1-4.09,1.49-6.96,1.49-3.09,0-5.5-.87-7.22-2.62s-2.58-4.18-2.58-7.29.91-5.63,2.74-7.57,4.12-2.91,6.89-2.91,4.91.83,6.46,2.5,2.33,3.96,2.33,6.88v2.41ZM42.05,24.67c0-2.91-1.18-4.36-3.53-4.36-.97,0-1.83.4-2.58,1.2s-1.22,1.85-1.41,3.16h7.52Z"/>
        <path class="cls-1" d="M64.51,22.05c-.69-.4-1.53-.6-2.51-.6-1.29,0-2.31.49-3.07,1.48s-1.13,2.34-1.13,4.06v9.35h-5.68v-19.44h5.68v3.66h.07c.94-2.66,2.64-3.99,5.12-3.99.67,0,1.18.08,1.53.23v5.26Z"/>
        <path class="cls-1" d="M74.13,34.01v2.34h-5.68V7.57h5.68v12.3h.07c1.49-2.3,3.61-3.45,6.36-3.45,2.45,0,4.37.86,5.76,2.57s2.08,4.07,2.08,7.08c0,3.22-.8,5.82-2.39,7.79s-3.71,2.95-6.35,2.95c-2.41,0-4.24-.94-5.47-2.81h-.07ZM74.04,27.94c0,1.28.38,2.35,1.14,3.22s1.73,1.3,2.9,1.3c1.42,0,2.52-.55,3.31-1.65s1.19-2.66,1.19-4.68c0-1.68-.36-2.99-1.08-3.93s-1.75-1.42-3.08-1.42c-1.27,0-2.31.47-3.14,1.42s-1.24,2.17-1.24,3.66v2.07Z"/>
        <path class="cls-1" d="M93,31.12c1.95,1.18,3.85,1.78,5.71,1.78,2.34,0,3.52-.63,3.52-1.88,0-.89-.97-1.63-2.9-2.23-2.41-.75-4.07-1.58-4.97-2.5s-1.35-2.17-1.35-3.74c0-1.91.77-3.41,2.32-4.49s3.57-1.63,6.08-1.63c1.78,0,3.5.26,5.15.79v4.46c-1.51-.89-3.18-1.34-4.99-1.34-.9,0-1.63.16-2.18.48s-.83.75-.83,1.27c0,.89.82,1.61,2.46,2.16,1.76.59,3.08,1.12,3.96,1.6s1.56,1.11,2.02,1.9.69,1.69.69,2.72c0,2-.8,3.56-2.41,4.67s-3.75,1.66-6.43,1.66c-2.11,0-4.06-.33-5.85-1v-4.69Z"/>
        <path class="cls-1" d="M143.13,33.32c-2.84,2.31-6.12,3.46-9.86,3.46-3.12,0-5.59-.74-7.42-2.21s-2.74-3.5-2.74-6.07c0-3.56,2.19-6.2,6.57-7.91-2.2-1.72-3.3-3.62-3.3-5.68,0-1.91.73-3.43,2.19-4.56s3.44-1.7,5.93-1.7c2.29,0,4.15.55,5.58,1.65s2.15,2.52,2.15,4.25c0,2.77-1.62,4.83-4.87,6.19,2.51,1.12,4.7,3.08,6.57,5.85,1.95-2.45,2.92-5.43,2.92-8.93,0-.97-.12-1.85-.37-2.62h4.89c.25.69.37,1.54.37,2.53,0,4.65-1.75,8.86-5.26,12.62,1.37,1.46,2.67,2.2,3.9,2.2s2.36-.25,3.39-.76v4.34c-1.29.53-2.68.79-4.18.79-2.3,0-4.45-1.15-6.47-3.46ZM140.65,29.7c-2.02-3.22-4.57-5.47-7.66-6.75-2.74,1.27-4.11,3.04-4.11,5.33,0,1.25.43,2.26,1.29,3.03s1.99,1.15,3.38,1.15c2.6,0,4.97-.92,7.1-2.76ZM133.89,18.61c2.2-.81,3.3-2.02,3.3-3.64,0-.74-.27-1.34-.8-1.79s-1.16-.69-1.89-.69c-.87,0-1.59.25-2.16.75s-.86,1.11-.86,1.84c0,1.42.8,2.6,2.41,3.53Z"/>
        <path class="cls-1" d="M195.34,36.34v-16.52c0-1.52.08-3.44.23-5.75h-.14c-.35,1.75-.63,2.91-.84,3.5l-6.71,18.77h-4.62l-6.8-18.6c-.16-.45-.45-1.67-.86-3.67h-.16c.15,2.29.23,4.58.23,6.87v15.4h-5.24V9.12h8.44l5.87,16.45c.49,1.36.83,2.64,1,3.83h.12c.36-1.49.74-2.78,1.12-3.87l5.89-16.42h8.21v27.23h-5.73Z"/>
        <path class="cls-1" d="M206.79,26.71c0-3.2.96-5.71,2.87-7.54s4.49-2.74,7.73-2.74,5.61.9,7.45,2.7,2.76,4.22,2.76,7.25c0,3.19-.94,5.72-2.83,7.61s-4.44,2.83-7.66,2.83-5.67-.91-7.53-2.72-2.79-4.27-2.79-7.39ZM212.54,26.64c0,3.88,1.58,5.82,4.75,5.82s4.55-1.99,4.55-5.98-1.53-5.7-4.59-5.7c-1.49,0-2.65.51-3.47,1.53s-1.24,2.46-1.24,4.32Z"/>
        <path class="cls-1" d="M248.59,36.34v-19.44h5.66v19.44h-5.66Z"/>
        <path class="cls-1" d="M259.25,26.71c0-3.2.96-5.71,2.87-7.54s4.49-2.74,7.73-2.74,5.61.9,7.45,2.7,2.76,4.22,2.76,7.25c0,3.19-.94,5.72-2.83,7.61s-4.44,2.83-7.66,2.83-5.67-.91-7.53-2.72-2.79-4.27-2.79-7.39ZM265,26.64c0,3.88,1.58,5.82,4.75,5.82s4.55-1.99,4.55-5.98-1.53-5.7-4.59-5.7c-1.49,0-2.65.51-3.47,1.53s-1.24,2.46-1.24,4.32Z"/>
        <path class="cls-1" d="M303.62,36.34h-5.64v-10.85c0-3.14-1.13-4.71-3.39-4.71-1.08,0-1.97.42-2.69,1.26s-1.07,1.91-1.07,3.21v11.09h-5.68v-19.44h5.68v3.09h.07c1.42-2.38,3.5-3.57,6.26-3.57,4.31,0,6.47,2.67,6.47,8.02v11.9Z"/>
      </g>
    </g>
  </g>
</svg>